<?xml version="1.0" encoding="UTF-8" standalone="no"?><!DOCTYPE svg PUBLIC "-//W3C//DTD SVG 1.1//EN" "http://www.w3.org/Graphics/SVG/1.1/DTD/svg11.dtd"><svg width="100%" height="100%" viewBox="0 0 1516 302" version="1.1" xmlns="http://www.w3.org/2000/svg" xmlns:xlink="http://www.w3.org/1999/xlink" xml:space="preserve" xmlns:serif="http://www.serif.com/" style="fill-rule:evenodd;clip-rule:evenodd;stroke-linejoin:round;stroke-miterlimit:2;"><path d="M1515.02,0.005l-94.631,301.932l-1420.38,-0l94.637,-301.937l1420.38,0.005Zm-1453.54,253.932l96.856,-0l-0,-209.907l-31.016,-0l-65.84,209.907Zm1393.39,-209.907l-99.949,-0l-0,209.907l34.109,-0l65.84,-209.907Zm-1249.07,209.907l67.181,-0l-0,-84.834c-0,-14.261 -2.229,-24.9 -6.685,-31.919c-4.456,-7.019 -12.367,-10.529 -23.731,-10.529c-12.923,0 -22.282,3.844 -28.075,11.532c-5.794,7.687 -8.69,20.332 -8.69,37.935l-0,77.815Zm361.497,-0l55.282,-0l-27.641,-41.718l-27.641,41.718Zm229.852,-71.799c-2.005,1.783 -4.512,3.175 -7.52,4.178c-3.008,1.003 -6.239,1.838 -9.693,2.507c-3.454,0.668 -7.075,1.225 -10.863,1.671c-3.788,0.446 -7.576,1.003 -11.364,1.671c-3.565,0.669 -7.074,1.56 -10.528,2.674c-3.454,1.114 -6.462,2.618 -9.024,4.512c-2.563,1.894 -4.624,4.29 -6.184,7.186c-1.559,2.897 -2.339,6.574 -2.339,11.03c-0,4.234 0.78,7.799 2.339,10.695c1.56,2.897 3.677,5.181 6.351,6.852c2.674,1.671 5.793,2.841 9.358,3.51c3.566,0.668 7.242,1.002 11.03,1.002c9.359,0 16.6,-1.559 21.725,-4.679c5.125,-3.119 8.913,-6.852 11.364,-11.197c2.451,-4.345 3.955,-8.745 4.512,-13.202c0.558,-4.456 0.836,-8.022 0.836,-10.695l0,-17.715Zm-335.236,-20.388c-2.229,-12.032 -6.184,-21.168 -11.866,-27.407c-5.682,-6.239 -14.316,-9.359 -25.903,-9.359c-7.576,0 -13.87,1.282 -18.884,3.844c-5.013,2.562 -9.024,5.738 -12.032,9.526c-3.008,3.788 -5.125,7.798 -6.351,12.032c-1.225,4.234 -1.949,8.022 -2.172,11.364l77.208,-0Zm-141.471,92.187l49.379,-0c-3.166,-2.414 -6.115,-5.068 -8.847,-7.96c-7.576,-8.022 -13.425,-17.603 -17.547,-28.744c-4.122,-11.141 -6.183,-23.397 -6.183,-36.766c-0,-12.924 2.116,-24.956 6.35,-36.097c4.234,-11.141 10.25,-20.778 18.049,-28.911c7.798,-8.133 17.101,-14.54 27.908,-19.219c10.807,-4.679 22.784,-7.019 35.93,-7.019c14.707,0 27.519,2.841 38.437,8.523c10.918,5.682 19.887,13.314 26.906,22.895c7.019,9.582 12.088,20.5 15.208,32.755c3.119,12.255 4.233,25.068 3.342,38.437l-124.669,0c0.668,15.375 4.568,26.516 11.698,33.423c7.13,6.908 17.38,10.362 30.749,10.362c9.582,-0 17.826,-2.396 24.734,-7.186c6.907,-4.791 11.141,-9.86 12.701,-15.208l41.779,-0c-5.824,18.053 -14.353,31.625 -25.589,40.715l33.648,-0l53.44,-78.149l-56.82,-81.887l54.146,-0l30.415,45.121l30.081,-45.121l52.475,-0l-56.82,80.884l54.975,79.152l17.82,-0c-2.99,-3.286 -5.474,-7.053 -7.452,-11.302c-3.008,-6.462 -4.512,-14.15 -4.512,-23.063c-0,-9.804 1.727,-17.881 5.18,-24.232c3.454,-6.35 7.911,-11.419 13.37,-15.207c5.459,-3.788 11.698,-6.629 18.717,-8.523c7.019,-1.894 14.093,-3.398 21.224,-4.512c7.13,-1.114 14.149,-2.006 21.056,-2.674c6.908,-0.669 13.035,-1.671 18.383,-3.008c5.348,-1.337 9.582,-3.287 12.701,-5.849c3.12,-2.563 4.568,-6.295 4.345,-11.197c0,-5.125 -0.836,-9.192 -2.507,-12.2c-1.671,-3.008 -3.899,-5.347 -6.684,-7.019c-2.786,-1.671 -6.017,-2.785 -9.693,-3.342c-3.677,-0.557 -7.632,-0.836 -11.865,-0.836c-9.359,0 -16.712,2.006 -22.06,6.017c-5.348,4.01 -8.467,10.695 -9.358,20.054l-47.462,-0c0.669,-11.141 3.454,-20.389 8.356,-27.742c4.902,-7.353 11.141,-13.258 18.717,-17.714c7.576,-4.457 16.099,-7.632 25.569,-9.526c9.47,-1.894 18.996,-2.841 28.577,-2.841c8.69,0 17.492,0.613 26.405,1.839c8.913,1.225 17.046,3.62 24.399,7.186c7.353,3.565 13.369,8.523 18.048,14.873c4.68,6.35 7.019,14.762 7.019,25.235l0,89.908c0,7.799 0.446,15.264 1.337,22.394c0.143,1.139 0.302,2.233 0.479,3.281l151.321,-0c-0.601,-0.684 -1.177,-1.388 -1.729,-2.111c-4.679,-6.128 -7.966,-13.592 -9.86,-22.394c-1.894,-8.801 -2.841,-18.55 -2.841,-29.245l0,-106.286l47.461,-0l0,97.596c0,14.26 2.229,24.9 6.685,31.919c4.456,7.019 12.367,10.528 23.731,10.528c12.923,0 22.282,-3.843 28.075,-11.531c5.794,-7.687 8.69,-20.332 8.69,-37.935l0,-90.577l47.462,-0l-0,160.036l23.607,-0l-0,-160.036l45.121,-0l0,32.086l0.669,-0c2.228,-5.348 5.236,-10.306 9.024,-14.873c3.788,-4.568 8.133,-8.468 13.035,-11.699c4.902,-3.231 10.139,-5.737 15.709,-7.52c5.571,-1.782 11.364,-2.674 17.38,-2.674c3.12,0 6.574,0.557 10.362,1.671l-0,44.119c-2.229,-0.445 -4.902,-0.835 -8.022,-1.17c-3.119,-0.334 -6.128,-0.501 -9.024,-0.501c-8.69,0 -16.043,1.448 -22.06,4.345c-6.016,2.897 -10.862,6.852 -14.539,11.865c-3.676,5.014 -6.295,10.863 -7.854,17.548c-1.56,6.684 -2.34,13.926 -2.34,21.725l0,65.114l91.611,-0l0,-209.907l-1102.3,-0l-0,73.935l1.002,0c6.017,-10.027 13.704,-17.324 23.063,-21.892c9.358,-4.568 18.494,-6.852 27.407,-6.852c12.701,0 23.118,1.727 31.251,5.181c8.133,3.454 14.539,8.244 19.218,14.372c4.679,6.128 7.966,13.592 9.86,22.394c1.894,8.801 2.841,18.55 2.841,29.245l-0,93.524Zm543.554,-98.872l100.604,0l0,40.777l-100.604,-0l-0,-40.777Z"/></svg>